<svg width="231" height="32" viewBox="0 0 231 32" fill="none" xmlns="http://www.w3.org/2000/svg">
<rect width="32" height="32" rx="16" fill="#DBAC2C"/>
<path d="M14.5 9H17.5C17.6326 9 17.7598 8.94732 17.8536 8.85355C17.9473 8.75979 18 8.63261 18 8.5C18 8.36739 17.9473 8.24021 17.8536 8.14645C17.7598 8.05268 17.6326 8 17.5 8H14.5C14.3674 8 14.2402 8.05268 14.1464 8.14645C14.0527 8.24021 14 8.36739 14 8.5C14 8.63261 14.0527 8.75979 14.1464 8.85355C14.2402 8.94732 14.3674 9 14.5 9Z" fill="#FAFAFA"/>
<path d="M16 10C14.8133 10 13.6533 10.3519 12.6666 11.0112C11.6799 11.6705 10.9109 12.6075 10.4567 13.7039C10.0026 14.8003 9.88378 16.0067 10.1153 17.1705C10.3468 18.3344 10.9182 19.4035 11.7574 20.2426C12.5965 21.0818 13.6656 21.6532 14.8295 21.8847C15.9933 22.1162 17.1997 21.9974 18.2961 21.5433C19.3925 21.0892 20.3295 20.3201 20.9888 19.3334C21.6481 18.3467 22 17.1867 22 16C21.9967 14.4097 21.3635 12.8855 20.239 11.761C19.1145 10.6365 17.5903 10.0033 16 10ZM18.8313 13.8812L16.3563 16.3562C16.2607 16.4487 16.1329 16.5003 16 16.5003C15.8671 16.5003 15.7393 16.4487 15.6438 16.3562C15.5499 16.2615 15.4972 16.1334 15.4972 16C15.4972 15.8666 15.5499 15.7385 15.6438 15.6438L18.1188 13.1687C18.1636 13.1141 18.2194 13.0695 18.2825 13.0377C18.3456 13.006 18.4147 12.9877 18.4852 12.9843C18.5558 12.9808 18.6264 12.9922 18.6923 13.0176C18.7582 13.043 18.8181 13.082 18.8681 13.1319C18.918 13.1819 18.957 13.2418 18.9824 13.3077C19.0078 13.3737 19.0192 13.4442 19.0157 13.5148C19.0123 13.5853 18.9941 13.6544 18.9623 13.7175C18.9305 13.7806 18.8859 13.8364 18.8313 13.8812Z" fill="#FAFAFA"/>
<path d="M52.5469 20.2734V21.5H46.5234V20.2734H52.5469ZM46.8281 10.125V21.5H45.3203V10.125H46.8281ZM51.75 15.0156V16.2422H46.5234V15.0156H51.75ZM52.4688 10.125V11.3594H46.5234V10.125H52.4688ZM55.6406 14.8516V21.5H54.1953V13.0469H55.5625L55.6406 14.8516ZM55.2969 16.9531L54.6953 16.9297C54.7005 16.3516 54.7865 15.8177 54.9531 15.3281C55.1198 14.8333 55.3542 14.4036 55.6562 14.0391C55.9583 13.6745 56.3177 13.3932 56.7344 13.1953C57.1562 12.9922 57.6224 12.8906 58.1328 12.8906C58.5495 12.8906 58.9245 12.9479 59.2578 13.0625C59.5911 13.1719 59.875 13.349 60.1094 13.5938C60.349 13.8385 60.5312 14.1562 60.6562 14.5469C60.7812 14.9323 60.8438 15.4036 60.8438 15.9609V21.5H59.3906V15.9453C59.3906 15.5026 59.3255 15.1484 59.1953 14.8828C59.0651 14.612 58.875 14.4167 58.625 14.2969C58.375 14.1719 58.0677 14.1094 57.7031 14.1094C57.3438 14.1094 57.0156 14.1849 56.7188 14.3359C56.4271 14.487 56.1745 14.6953 55.9609 14.9609C55.7526 15.2266 55.5885 15.5312 55.4688 15.875C55.3542 16.2135 55.2969 16.5729 55.2969 16.9531ZM66.5781 13.0469V14.1562H62.0078V13.0469H66.5781ZM63.5547 10.9922H65V19.4062C65 19.6927 65.0443 19.9089 65.1328 20.0547C65.2214 20.2005 65.3359 20.2969 65.4766 20.3438C65.6172 20.3906 65.7682 20.4141 65.9297 20.4141C66.0495 20.4141 66.1745 20.4036 66.3047 20.3828C66.4401 20.3568 66.5417 20.3359 66.6094 20.3203L66.6172 21.5C66.5026 21.5365 66.3516 21.5703 66.1641 21.6016C65.9818 21.638 65.7604 21.6562 65.5 21.6562C65.1458 21.6562 64.8203 21.5859 64.5234 21.4453C64.2266 21.3047 63.9896 21.0703 63.8125 20.7422C63.6406 20.4089 63.5547 19.9609 63.5547 19.3984V10.9922ZM69.7188 14.375V21.5H68.2734V13.0469H69.6797L69.7188 14.375ZM72.3594 13L72.3516 14.3438C72.2318 14.3177 72.1172 14.3021 72.0078 14.2969C71.9036 14.2865 71.7839 14.2812 71.6484 14.2812C71.3151 14.2812 71.0208 14.3333 70.7656 14.4375C70.5104 14.5417 70.2943 14.6875 70.1172 14.875C69.9401 15.0625 69.7995 15.2865 69.6953 15.5469C69.5964 15.8021 69.5312 16.0833 69.5 16.3906L69.0938 16.625C69.0938 16.1146 69.1432 15.6354 69.2422 15.1875C69.3464 14.7396 69.5052 14.3438 69.7188 14C69.9323 13.651 70.2031 13.3802 70.5312 13.1875C70.8646 12.9896 71.2604 12.8906 71.7188 12.8906C71.8229 12.8906 71.9427 12.9036 72.0781 12.9297C72.2135 12.9505 72.3073 12.974 72.3594 13ZM77.0469 21.6562C76.4583 21.6562 75.9245 21.5573 75.4453 21.3594C74.9714 21.1562 74.5625 20.8724 74.2188 20.5078C73.8802 20.1432 73.6198 19.7109 73.4375 19.2109C73.2552 18.7109 73.1641 18.1641 73.1641 17.5703V17.2422C73.1641 16.5547 73.2656 15.9427 73.4688 15.4062C73.6719 14.8646 73.9479 14.4062 74.2969 14.0312C74.6458 13.6562 75.0417 13.3724 75.4844 13.1797C75.9271 12.987 76.3854 12.8906 76.8594 12.8906C77.4635 12.8906 77.9844 12.9948 78.4219 13.2031C78.8646 13.4115 79.2266 13.7031 79.5078 14.0781C79.7891 14.4479 79.9974 14.8854 80.1328 15.3906C80.2682 15.8906 80.3359 16.4375 80.3359 17.0312V17.6797H74.0234V16.5H78.8906V16.3906C78.8698 16.0156 78.7917 15.651 78.6562 15.2969C78.526 14.9427 78.3177 14.651 78.0312 14.4219C77.7448 14.1927 77.3542 14.0781 76.8594 14.0781C76.5312 14.0781 76.2292 14.1484 75.9531 14.2891C75.6771 14.4245 75.4401 14.6276 75.2422 14.8984C75.0443 15.1693 74.8906 15.5 74.7812 15.8906C74.6719 16.2812 74.6172 16.7318 74.6172 17.2422V17.5703C74.6172 17.9714 74.6719 18.349 74.7812 18.7031C74.8958 19.0521 75.0599 19.3594 75.2734 19.625C75.4922 19.8906 75.7552 20.099 76.0625 20.25C76.375 20.401 76.7292 20.4766 77.125 20.4766C77.6354 20.4766 78.0677 20.3724 78.4219 20.1641C78.776 19.9557 79.0859 19.6771 79.3516 19.3281L80.2266 20.0234C80.0443 20.2995 79.8125 20.5625 79.5312 20.8125C79.25 21.0625 78.9036 21.2656 78.4922 21.4219C78.0859 21.5781 77.6042 21.6562 77.0469 21.6562ZM87.5 13.0469H88.8125V21.3203C88.8125 22.0651 88.6615 22.7005 88.3594 23.2266C88.0573 23.7526 87.6354 24.151 87.0938 24.4219C86.5573 24.6979 85.9375 24.8359 85.2344 24.8359C84.9427 24.8359 84.599 24.7891 84.2031 24.6953C83.8125 24.6068 83.4271 24.4531 83.0469 24.2344C82.6719 24.0208 82.3568 23.7318 82.1016 23.3672L82.8594 22.5078C83.2135 22.9349 83.5833 23.2318 83.9688 23.3984C84.3594 23.5651 84.7448 23.6484 85.125 23.6484C85.5833 23.6484 85.9792 23.5625 86.3125 23.3906C86.6458 23.2188 86.9036 22.9635 87.0859 22.625C87.2734 22.2917 87.3672 21.8802 87.3672 21.3906V14.9062L87.5 13.0469ZM81.6797 17.3672V17.2031C81.6797 16.5573 81.7552 15.9714 81.9062 15.4453C82.0625 14.9141 82.2839 14.4583 82.5703 14.0781C82.862 13.6979 83.2135 13.4062 83.625 13.2031C84.0365 12.9948 84.5 12.8906 85.0156 12.8906C85.5469 12.8906 86.0104 12.9844 86.4062 13.1719C86.8073 13.3542 87.1458 13.6224 87.4219 13.9766C87.7031 14.3255 87.9245 14.7474 88.0859 15.2422C88.2474 15.737 88.3594 16.2969 88.4219 16.9219V17.6406C88.3646 18.2604 88.2526 18.8177 88.0859 19.3125C87.9245 19.8073 87.7031 20.2292 87.4219 20.5781C87.1458 20.9271 86.8073 21.1953 86.4062 21.3828C86.0052 21.5651 85.5365 21.6562 85 21.6562C84.4948 21.6562 84.0365 21.5495 83.625 21.3359C83.2188 21.1224 82.8698 20.8229 82.5781 20.4375C82.2865 20.0521 82.0625 19.599 81.9062 19.0781C81.7552 18.5521 81.6797 17.9818 81.6797 17.3672ZM83.125 17.2031V17.3672C83.125 17.7891 83.1667 18.1849 83.25 18.5547C83.3385 18.9245 83.4714 19.25 83.6484 19.5312C83.8307 19.8125 84.0625 20.0339 84.3438 20.1953C84.625 20.3516 84.9609 20.4297 85.3516 20.4297C85.8307 20.4297 86.2266 20.3281 86.5391 20.125C86.8516 19.9219 87.099 19.6536 87.2812 19.3203C87.4688 18.987 87.6146 18.625 87.7188 18.2344V16.3516C87.6615 16.0651 87.5729 15.7891 87.4531 15.5234C87.3385 15.2526 87.1875 15.013 87 14.8047C86.8177 14.5911 86.5911 14.4219 86.3203 14.2969C86.0495 14.1719 85.7318 14.1094 85.3672 14.1094C84.9714 14.1094 84.6302 14.1927 84.3438 14.3594C84.0625 14.5208 83.8307 14.7448 83.6484 15.0312C83.4714 15.3125 83.3385 15.6406 83.25 16.0156C83.1667 16.3854 83.125 16.7812 83.125 17.2031ZM95.9922 20.0547V15.7031C95.9922 15.3698 95.9245 15.0807 95.7891 14.8359C95.6589 14.5859 95.4609 14.3932 95.1953 14.2578C94.9297 14.1224 94.6016 14.0547 94.2109 14.0547C93.8464 14.0547 93.526 14.1172 93.25 14.2422C92.9792 14.3672 92.7656 14.5312 92.6094 14.7344C92.4583 14.9375 92.3828 15.1562 92.3828 15.3906H90.9375C90.9375 15.0885 91.0156 14.7891 91.1719 14.4922C91.3281 14.1953 91.5521 13.9271 91.8438 13.6875C92.1406 13.4427 92.4948 13.25 92.9062 13.1094C93.3229 12.9635 93.7865 12.8906 94.2969 12.8906C94.9115 12.8906 95.4531 12.9948 95.9219 13.2031C96.3958 13.4115 96.7656 13.7266 97.0312 14.1484C97.3021 14.5651 97.4375 15.0885 97.4375 15.7188V19.6562C97.4375 19.9375 97.4609 20.237 97.5078 20.5547C97.5599 20.8724 97.6354 21.1458 97.7344 21.375V21.5H96.2266C96.1536 21.3333 96.0964 21.112 96.0547 20.8359C96.013 20.5547 95.9922 20.2943 95.9922 20.0547ZM96.2422 16.375L96.2578 17.3906H94.7969C94.3854 17.3906 94.0182 17.4245 93.6953 17.4922C93.3724 17.5547 93.1016 17.651 92.8828 17.7812C92.6641 17.9115 92.4974 18.0755 92.3828 18.2734C92.2682 18.4661 92.2109 18.6927 92.2109 18.9531C92.2109 19.2188 92.2708 19.4609 92.3906 19.6797C92.5104 19.8984 92.6901 20.0729 92.9297 20.2031C93.1745 20.3281 93.474 20.3906 93.8281 20.3906C94.2708 20.3906 94.6615 20.2969 95 20.1094C95.3385 19.9219 95.6068 19.6927 95.8047 19.4219C96.0078 19.151 96.1172 18.888 96.1328 18.6328L96.75 19.3281C96.7135 19.5469 96.6146 19.7891 96.4531 20.0547C96.2917 20.3203 96.0755 20.5755 95.8047 20.8203C95.5391 21.0599 95.2214 21.2604 94.8516 21.4219C94.487 21.5781 94.0755 21.6562 93.6172 21.6562C93.0443 21.6562 92.5417 21.5443 92.1094 21.3203C91.6823 21.0964 91.349 20.7969 91.1094 20.4219C90.875 20.0417 90.7578 19.6172 90.7578 19.1484C90.7578 18.6953 90.8464 18.2969 91.0234 17.9531C91.2005 17.6042 91.4557 17.3151 91.7891 17.0859C92.1224 16.8516 92.5234 16.6745 92.9922 16.5547C93.4609 16.4349 93.9844 16.375 94.5625 16.375H96.2422ZM105.125 14.375V21.5H103.68V13.0469H105.086L105.125 14.375ZM107.766 13L107.758 14.3438C107.638 14.3177 107.523 14.3021 107.414 14.2969C107.31 14.2865 107.19 14.2812 107.055 14.2812C106.721 14.2812 106.427 14.3333 106.172 14.4375C105.917 14.5417 105.701 14.6875 105.523 14.875C105.346 15.0625 105.206 15.2865 105.102 15.5469C105.003 15.8021 104.938 16.0833 104.906 16.3906L104.5 16.625C104.5 16.1146 104.549 15.6354 104.648 15.1875C104.753 14.7396 104.911 14.3438 105.125 14C105.339 13.651 105.609 13.3802 105.938 13.1875C106.271 12.9896 106.667 12.8906 107.125 12.8906C107.229 12.8906 107.349 12.9036 107.484 12.9297C107.62 12.9505 107.714 12.974 107.766 13ZM113.773 20.0547V15.7031C113.773 15.3698 113.706 15.0807 113.57 14.8359C113.44 14.5859 113.242 14.3932 112.977 14.2578C112.711 14.1224 112.383 14.0547 111.992 14.0547C111.628 14.0547 111.307 14.1172 111.031 14.2422C110.76 14.3672 110.547 14.5312 110.391 14.7344C110.24 14.9375 110.164 15.1562 110.164 15.3906H108.719C108.719 15.0885 108.797 14.7891 108.953 14.4922C109.109 14.1953 109.333 13.9271 109.625 13.6875C109.922 13.4427 110.276 13.25 110.688 13.1094C111.104 12.9635 111.568 12.8906 112.078 12.8906C112.693 12.8906 113.234 12.9948 113.703 13.2031C114.177 13.4115 114.547 13.7266 114.812 14.1484C115.083 14.5651 115.219 15.0885 115.219 15.7188V19.6562C115.219 19.9375 115.242 20.237 115.289 20.5547C115.341 20.8724 115.417 21.1458 115.516 21.375V21.5H114.008C113.935 21.3333 113.878 21.112 113.836 20.8359C113.794 20.5547 113.773 20.2943 113.773 20.0547ZM114.023 16.375L114.039 17.3906H112.578C112.167 17.3906 111.799 17.4245 111.477 17.4922C111.154 17.5547 110.883 17.651 110.664 17.7812C110.445 17.9115 110.279 18.0755 110.164 18.2734C110.049 18.4661 109.992 18.6927 109.992 18.9531C109.992 19.2188 110.052 19.4609 110.172 19.6797C110.292 19.8984 110.471 20.0729 110.711 20.2031C110.956 20.3281 111.255 20.3906 111.609 20.3906C112.052 20.3906 112.443 20.2969 112.781 20.1094C113.12 19.9219 113.388 19.6927 113.586 19.4219C113.789 19.151 113.898 18.888 113.914 18.6328L114.531 19.3281C114.495 19.5469 114.396 19.7891 114.234 20.0547C114.073 20.3203 113.857 20.5755 113.586 20.8203C113.32 21.0599 113.003 21.2604 112.633 21.4219C112.268 21.5781 111.857 21.6562 111.398 21.6562C110.826 21.6562 110.323 21.5443 109.891 21.3203C109.464 21.0964 109.13 20.7969 108.891 20.4219C108.656 20.0417 108.539 19.6172 108.539 19.1484C108.539 18.6953 108.628 18.2969 108.805 17.9531C108.982 17.6042 109.237 17.3151 109.57 17.0859C109.904 16.8516 110.305 16.6745 110.773 16.5547C111.242 16.4349 111.766 16.375 112.344 16.375H114.023ZM111.438 11.7969L112.953 9.5H114.695L112.602 11.7969H111.438ZM118.938 14.6719V24.75H117.484V13.0469H118.812L118.938 14.6719ZM124.633 17.2031V17.3672C124.633 17.9818 124.56 18.5521 124.414 19.0781C124.268 19.599 124.055 20.0521 123.773 20.4375C123.497 20.8229 123.156 21.1224 122.75 21.3359C122.344 21.5495 121.878 21.6562 121.352 21.6562C120.815 21.6562 120.341 21.5677 119.93 21.3906C119.518 21.2135 119.169 20.9557 118.883 20.6172C118.596 20.2786 118.367 19.8724 118.195 19.3984C118.029 18.9245 117.914 18.3906 117.852 17.7969V16.9219C117.914 16.2969 118.031 15.737 118.203 15.2422C118.375 14.7474 118.602 14.3255 118.883 13.9766C119.169 13.6224 119.516 13.3542 119.922 13.1719C120.328 12.9844 120.797 12.8906 121.328 12.8906C121.859 12.8906 122.331 12.9948 122.742 13.2031C123.154 13.4062 123.5 13.6979 123.781 14.0781C124.062 14.4583 124.273 14.9141 124.414 15.4453C124.56 15.9714 124.633 16.5573 124.633 17.2031ZM123.18 17.3672V17.2031C123.18 16.7812 123.135 16.3854 123.047 16.0156C122.958 15.6406 122.82 15.3125 122.633 15.0312C122.451 14.7448 122.216 14.5208 121.93 14.3594C121.643 14.1927 121.302 14.1094 120.906 14.1094C120.542 14.1094 120.224 14.1719 119.953 14.2969C119.688 14.4219 119.461 14.5911 119.273 14.8047C119.086 15.013 118.932 15.2526 118.812 15.5234C118.698 15.7891 118.612 16.0651 118.555 16.3516V18.375C118.659 18.7396 118.805 19.0833 118.992 19.4062C119.18 19.724 119.43 19.9818 119.742 20.1797C120.055 20.3724 120.448 20.4688 120.922 20.4688C121.312 20.4688 121.648 20.388 121.93 20.2266C122.216 20.0599 122.451 19.8333 122.633 19.5469C122.82 19.2604 122.958 18.9323 123.047 18.5625C123.135 18.1875 123.18 17.7891 123.18 17.3672ZM128.047 13.0469V21.5H126.594V13.0469H128.047ZM126.484 10.8047C126.484 10.5703 126.555 10.3724 126.695 10.2109C126.841 10.0495 127.055 9.96875 127.336 9.96875C127.612 9.96875 127.823 10.0495 127.969 10.2109C128.12 10.3724 128.195 10.5703 128.195 10.8047C128.195 11.0286 128.12 11.2214 127.969 11.3828C127.823 11.5391 127.612 11.6172 127.336 11.6172C127.055 11.6172 126.841 11.5391 126.695 11.3828C126.555 11.2214 126.484 11.0286 126.484 10.8047ZM135.695 19.8594V9.5H137.148V21.5H135.82L135.695 19.8594ZM130.008 17.3672V17.2031C130.008 16.5573 130.086 15.9714 130.242 15.4453C130.404 14.9141 130.63 14.4583 130.922 14.0781C131.219 13.6979 131.57 13.4062 131.977 13.2031C132.388 12.9948 132.846 12.8906 133.352 12.8906C133.883 12.8906 134.346 12.9844 134.742 13.1719C135.143 13.3542 135.482 13.6224 135.758 13.9766C136.039 14.3255 136.26 14.7474 136.422 15.2422C136.583 15.737 136.695 16.2969 136.758 16.9219V17.6406C136.701 18.2604 136.589 18.8177 136.422 19.3125C136.26 19.8073 136.039 20.2292 135.758 20.5781C135.482 20.9271 135.143 21.1953 134.742 21.3828C134.341 21.5651 133.872 21.6562 133.336 21.6562C132.841 21.6562 132.388 21.5495 131.977 21.3359C131.57 21.1224 131.219 20.8229 130.922 20.4375C130.63 20.0521 130.404 19.599 130.242 19.0781C130.086 18.5521 130.008 17.9818 130.008 17.3672ZM131.461 17.2031V17.3672C131.461 17.7891 131.503 18.1849 131.586 18.5547C131.674 18.9245 131.81 19.25 131.992 19.5312C132.174 19.8125 132.406 20.0339 132.688 20.1953C132.969 20.3516 133.305 20.4297 133.695 20.4297C134.174 20.4297 134.568 20.3281 134.875 20.125C135.188 19.9219 135.438 19.6536 135.625 19.3203C135.812 18.987 135.958 18.625 136.062 18.2344V16.3516C136 16.0651 135.909 15.7891 135.789 15.5234C135.674 15.2526 135.523 15.013 135.336 14.8047C135.154 14.5911 134.927 14.4219 134.656 14.2969C134.391 14.1719 134.076 14.1094 133.711 14.1094C133.315 14.1094 132.974 14.1927 132.688 14.3594C132.406 14.5208 132.174 14.7448 131.992 15.0312C131.81 15.3125 131.674 15.6406 131.586 16.0156C131.503 16.3854 131.461 16.7812 131.461 17.2031ZM144.383 20.0547V15.7031C144.383 15.3698 144.315 15.0807 144.18 14.8359C144.049 14.5859 143.852 14.3932 143.586 14.2578C143.32 14.1224 142.992 14.0547 142.602 14.0547C142.237 14.0547 141.917 14.1172 141.641 14.2422C141.37 14.3672 141.156 14.5312 141 14.7344C140.849 14.9375 140.773 15.1562 140.773 15.3906H139.328C139.328 15.0885 139.406 14.7891 139.562 14.4922C139.719 14.1953 139.943 13.9271 140.234 13.6875C140.531 13.4427 140.885 13.25 141.297 13.1094C141.714 12.9635 142.177 12.8906 142.688 12.8906C143.302 12.8906 143.844 12.9948 144.312 13.2031C144.786 13.4115 145.156 13.7266 145.422 14.1484C145.693 14.5651 145.828 15.0885 145.828 15.7188V19.6562C145.828 19.9375 145.852 20.237 145.898 20.5547C145.951 20.8724 146.026 21.1458 146.125 21.375V21.5H144.617C144.544 21.3333 144.487 21.112 144.445 20.8359C144.404 20.5547 144.383 20.2943 144.383 20.0547ZM144.633 16.375L144.648 17.3906H143.188C142.776 17.3906 142.409 17.4245 142.086 17.4922C141.763 17.5547 141.492 17.651 141.273 17.7812C141.055 17.9115 140.888 18.0755 140.773 18.2734C140.659 18.4661 140.602 18.6927 140.602 18.9531C140.602 19.2188 140.661 19.4609 140.781 19.6797C140.901 19.8984 141.081 20.0729 141.32 20.2031C141.565 20.3281 141.865 20.3906 142.219 20.3906C142.661 20.3906 143.052 20.2969 143.391 20.1094C143.729 19.9219 143.997 19.6927 144.195 19.4219C144.398 19.151 144.508 18.888 144.523 18.6328L145.141 19.3281C145.104 19.5469 145.005 19.7891 144.844 20.0547C144.682 20.3203 144.466 20.5755 144.195 20.8203C143.93 21.0599 143.612 21.2604 143.242 21.4219C142.878 21.5781 142.466 21.6562 142.008 21.6562C141.435 21.6562 140.932 21.5443 140.5 21.3203C140.073 21.0964 139.74 20.7969 139.5 20.4219C139.266 20.0417 139.148 19.6172 139.148 19.1484C139.148 18.6953 139.237 18.2969 139.414 17.9531C139.591 17.6042 139.846 17.3151 140.18 17.0859C140.513 16.8516 140.914 16.6745 141.383 16.5547C141.852 16.4349 142.375 16.375 142.953 16.375H144.633ZM155.578 21.6562C154.99 21.6562 154.456 21.5573 153.977 21.3594C153.503 21.1562 153.094 20.8724 152.75 20.5078C152.411 20.1432 152.151 19.7109 151.969 19.2109C151.786 18.7109 151.695 18.1641 151.695 17.5703V17.2422C151.695 16.5547 151.797 15.9427 152 15.4062C152.203 14.8646 152.479 14.4062 152.828 14.0312C153.177 13.6562 153.573 13.3724 154.016 13.1797C154.458 12.987 154.917 12.8906 155.391 12.8906C155.995 12.8906 156.516 12.9948 156.953 13.2031C157.396 13.4115 157.758 13.7031 158.039 14.0781C158.32 14.4479 158.529 14.8854 158.664 15.3906C158.799 15.8906 158.867 16.4375 158.867 17.0312V17.6797H152.555V16.5H157.422V16.3906C157.401 16.0156 157.323 15.651 157.188 15.2969C157.057 14.9427 156.849 14.651 156.562 14.4219C156.276 14.1927 155.885 14.0781 155.391 14.0781C155.062 14.0781 154.76 14.1484 154.484 14.2891C154.208 14.4245 153.971 14.6276 153.773 14.8984C153.576 15.1693 153.422 15.5 153.312 15.8906C153.203 16.2812 153.148 16.7318 153.148 17.2422V17.5703C153.148 17.9714 153.203 18.349 153.312 18.7031C153.427 19.0521 153.591 19.3594 153.805 19.625C154.023 19.8906 154.286 20.099 154.594 20.25C154.906 20.401 155.26 20.4766 155.656 20.4766C156.167 20.4766 156.599 20.3724 156.953 20.1641C157.307 19.9557 157.617 19.6771 157.883 19.3281L158.758 20.0234C158.576 20.2995 158.344 20.5625 158.062 20.8125C157.781 21.0625 157.435 21.2656 157.023 21.4219C156.617 21.5781 156.135 21.6562 155.578 21.6562ZM165.969 14.375V21.5H164.523V13.0469H165.93L165.969 14.375ZM168.609 13L168.602 14.3438C168.482 14.3177 168.367 14.3021 168.258 14.2969C168.154 14.2865 168.034 14.2812 167.898 14.2812C167.565 14.2812 167.271 14.3333 167.016 14.4375C166.76 14.5417 166.544 14.6875 166.367 14.875C166.19 15.0625 166.049 15.2865 165.945 15.5469C165.846 15.8021 165.781 16.0833 165.75 16.3906L165.344 16.625C165.344 16.1146 165.393 15.6354 165.492 15.1875C165.596 14.7396 165.755 14.3438 165.969 14C166.182 13.651 166.453 13.3802 166.781 13.1875C167.115 12.9896 167.51 12.8906 167.969 12.8906C168.073 12.8906 168.193 12.9036 168.328 12.9297C168.464 12.9505 168.557 12.974 168.609 13ZM174.617 20.0547V15.7031C174.617 15.3698 174.549 15.0807 174.414 14.8359C174.284 14.5859 174.086 14.3932 173.82 14.2578C173.555 14.1224 173.227 14.0547 172.836 14.0547C172.471 14.0547 172.151 14.1172 171.875 14.2422C171.604 14.3672 171.391 14.5312 171.234 14.7344C171.083 14.9375 171.008 15.1562 171.008 15.3906H169.562C169.562 15.0885 169.641 14.7891 169.797 14.4922C169.953 14.1953 170.177 13.9271 170.469 13.6875C170.766 13.4427 171.12 13.25 171.531 13.1094C171.948 12.9635 172.411 12.8906 172.922 12.8906C173.536 12.8906 174.078 12.9948 174.547 13.2031C175.021 13.4115 175.391 13.7266 175.656 14.1484C175.927 14.5651 176.062 15.0885 176.062 15.7188V19.6562C176.062 19.9375 176.086 20.237 176.133 20.5547C176.185 20.8724 176.26 21.1458 176.359 21.375V21.5H174.852C174.779 21.3333 174.721 21.112 174.68 20.8359C174.638 20.5547 174.617 20.2943 174.617 20.0547ZM174.867 16.375L174.883 17.3906H173.422C173.01 17.3906 172.643 17.4245 172.32 17.4922C171.997 17.5547 171.727 17.651 171.508 17.7812C171.289 17.9115 171.122 18.0755 171.008 18.2734C170.893 18.4661 170.836 18.6927 170.836 18.9531C170.836 19.2188 170.896 19.4609 171.016 19.6797C171.135 19.8984 171.315 20.0729 171.555 20.2031C171.799 20.3281 172.099 20.3906 172.453 20.3906C172.896 20.3906 173.286 20.2969 173.625 20.1094C173.964 19.9219 174.232 19.6927 174.43 19.4219C174.633 19.151 174.742 18.888 174.758 18.6328L175.375 19.3281C175.339 19.5469 175.24 19.7891 175.078 20.0547C174.917 20.3203 174.701 20.5755 174.43 20.8203C174.164 21.0599 173.846 21.2604 173.477 21.4219C173.112 21.5781 172.701 21.6562 172.242 21.6562C171.669 21.6562 171.167 21.5443 170.734 21.3203C170.307 21.0964 169.974 20.7969 169.734 20.4219C169.5 20.0417 169.383 19.6172 169.383 19.1484C169.383 18.6953 169.471 18.2969 169.648 17.9531C169.826 17.6042 170.081 17.3151 170.414 17.0859C170.747 16.8516 171.148 16.6745 171.617 16.5547C172.086 16.4349 172.609 16.375 173.188 16.375H174.867ZM183.258 19.2578C183.258 19.0495 183.211 18.8568 183.117 18.6797C183.029 18.4974 182.844 18.3333 182.562 18.1875C182.286 18.0365 181.87 17.9062 181.312 17.7969C180.844 17.6979 180.419 17.5807 180.039 17.4453C179.664 17.3099 179.344 17.1458 179.078 16.9531C178.818 16.7604 178.617 16.5339 178.477 16.2734C178.336 16.013 178.266 15.7083 178.266 15.3594C178.266 15.026 178.339 14.7109 178.484 14.4141C178.635 14.1172 178.846 13.8542 179.117 13.625C179.393 13.3958 179.724 13.2161 180.109 13.0859C180.495 12.9557 180.924 12.8906 181.398 12.8906C182.076 12.8906 182.654 13.0104 183.133 13.25C183.612 13.4896 183.979 13.8099 184.234 14.2109C184.49 14.6068 184.617 15.0469 184.617 15.5312H183.172C183.172 15.2969 183.102 15.0703 182.961 14.8516C182.826 14.6276 182.625 14.4427 182.359 14.2969C182.099 14.151 181.779 14.0781 181.398 14.0781C180.997 14.0781 180.672 14.1406 180.422 14.2656C180.177 14.3854 179.997 14.5391 179.883 14.7266C179.773 14.9141 179.719 15.112 179.719 15.3203C179.719 15.4766 179.745 15.6172 179.797 15.7422C179.854 15.862 179.953 15.974 180.094 16.0781C180.234 16.1771 180.432 16.2708 180.688 16.3594C180.943 16.4479 181.268 16.5365 181.664 16.625C182.357 16.7812 182.927 16.9688 183.375 17.1875C183.823 17.4062 184.156 17.6745 184.375 17.9922C184.594 18.3099 184.703 18.6953 184.703 19.1484C184.703 19.5182 184.625 19.8568 184.469 20.1641C184.318 20.4714 184.096 20.737 183.805 20.9609C183.518 21.1797 183.174 21.3516 182.773 21.4766C182.378 21.5964 181.932 21.6562 181.438 21.6562C180.693 21.6562 180.062 21.5234 179.547 21.2578C179.031 20.9922 178.641 20.6484 178.375 20.2266C178.109 19.8047 177.977 19.3594 177.977 18.8906H179.43C179.451 19.2865 179.565 19.6016 179.773 19.8359C179.982 20.0651 180.237 20.2292 180.539 20.3281C180.841 20.4219 181.141 20.4688 181.438 20.4688C181.833 20.4688 182.164 20.4167 182.43 20.3125C182.701 20.2083 182.906 20.0651 183.047 19.8828C183.188 19.7005 183.258 19.4922 183.258 19.2578ZM190.141 13.0469V14.1562H185.57V13.0469H190.141ZM187.117 10.9922H188.562V19.4062C188.562 19.6927 188.607 19.9089 188.695 20.0547C188.784 20.2005 188.898 20.2969 189.039 20.3438C189.18 20.3906 189.331 20.4141 189.492 20.4141C189.612 20.4141 189.737 20.4036 189.867 20.3828C190.003 20.3568 190.104 20.3359 190.172 20.3203L190.18 21.5C190.065 21.5365 189.914 21.5703 189.727 21.6016C189.544 21.638 189.323 21.6562 189.062 21.6562C188.708 21.6562 188.383 21.5859 188.086 21.4453C187.789 21.3047 187.552 21.0703 187.375 20.7422C187.203 20.4089 187.117 19.9609 187.117 19.3984V10.9922ZM193.281 14.375V21.5H191.836V13.0469H193.242L193.281 14.375ZM195.922 13L195.914 14.3438C195.794 14.3177 195.68 14.3021 195.57 14.2969C195.466 14.2865 195.346 14.2812 195.211 14.2812C194.878 14.2812 194.583 14.3333 194.328 14.4375C194.073 14.5417 193.857 14.6875 193.68 14.875C193.503 15.0625 193.362 15.2865 193.258 15.5469C193.159 15.8021 193.094 16.0833 193.062 16.3906L192.656 16.625C192.656 16.1146 192.706 15.6354 192.805 15.1875C192.909 14.7396 193.068 14.3438 193.281 14C193.495 13.651 193.766 13.3802 194.094 13.1875C194.427 12.9896 194.823 12.8906 195.281 12.8906C195.385 12.8906 195.505 12.9036 195.641 12.9297C195.776 12.9505 195.87 12.974 195.922 13ZM200.609 21.6562C200.021 21.6562 199.487 21.5573 199.008 21.3594C198.534 21.1562 198.125 20.8724 197.781 20.5078C197.443 20.1432 197.182 19.7109 197 19.2109C196.818 18.7109 196.727 18.1641 196.727 17.5703V17.2422C196.727 16.5547 196.828 15.9427 197.031 15.4062C197.234 14.8646 197.51 14.4062 197.859 14.0312C198.208 13.6562 198.604 13.3724 199.047 13.1797C199.49 12.987 199.948 12.8906 200.422 12.8906C201.026 12.8906 201.547 12.9948 201.984 13.2031C202.427 13.4115 202.789 13.7031 203.07 14.0781C203.352 14.4479 203.56 14.8854 203.695 15.3906C203.831 15.8906 203.898 16.4375 203.898 17.0312V17.6797H197.586V16.5H202.453V16.3906C202.432 16.0156 202.354 15.651 202.219 15.2969C202.089 14.9427 201.88 14.651 201.594 14.4219C201.307 14.1927 200.917 14.0781 200.422 14.0781C200.094 14.0781 199.792 14.1484 199.516 14.2891C199.24 14.4245 199.003 14.6276 198.805 14.8984C198.607 15.1693 198.453 15.5 198.344 15.8906C198.234 16.2812 198.18 16.7318 198.18 17.2422V17.5703C198.18 17.9714 198.234 18.349 198.344 18.7031C198.458 19.0521 198.622 19.3594 198.836 19.625C199.055 19.8906 199.318 20.099 199.625 20.25C199.938 20.401 200.292 20.4766 200.688 20.4766C201.198 20.4766 201.63 20.3724 201.984 20.1641C202.339 19.9557 202.648 19.6771 202.914 19.3281L203.789 20.0234C203.607 20.2995 203.375 20.5625 203.094 20.8125C202.812 21.0625 202.466 21.2656 202.055 21.4219C201.648 21.5781 201.167 21.6562 200.609 21.6562ZM210.57 20.0547V15.7031C210.57 15.3698 210.503 15.0807 210.367 14.8359C210.237 14.5859 210.039 14.3932 209.773 14.2578C209.508 14.1224 209.18 14.0547 208.789 14.0547C208.424 14.0547 208.104 14.1172 207.828 14.2422C207.557 14.3672 207.344 14.5312 207.188 14.7344C207.036 14.9375 206.961 15.1562 206.961 15.3906H205.516C205.516 15.0885 205.594 14.7891 205.75 14.4922C205.906 14.1953 206.13 13.9271 206.422 13.6875C206.719 13.4427 207.073 13.25 207.484 13.1094C207.901 12.9635 208.365 12.8906 208.875 12.8906C209.49 12.8906 210.031 12.9948 210.5 13.2031C210.974 13.4115 211.344 13.7266 211.609 14.1484C211.88 14.5651 212.016 15.0885 212.016 15.7188V19.6562C212.016 19.9375 212.039 20.237 212.086 20.5547C212.138 20.8724 212.214 21.1458 212.312 21.375V21.5H210.805C210.732 21.3333 210.674 21.112 210.633 20.8359C210.591 20.5547 210.57 20.2943 210.57 20.0547ZM210.82 16.375L210.836 17.3906H209.375C208.964 17.3906 208.596 17.4245 208.273 17.4922C207.951 17.5547 207.68 17.651 207.461 17.7812C207.242 17.9115 207.076 18.0755 206.961 18.2734C206.846 18.4661 206.789 18.6927 206.789 18.9531C206.789 19.2188 206.849 19.4609 206.969 19.6797C207.089 19.8984 207.268 20.0729 207.508 20.2031C207.753 20.3281 208.052 20.3906 208.406 20.3906C208.849 20.3906 209.24 20.2969 209.578 20.1094C209.917 19.9219 210.185 19.6927 210.383 19.4219C210.586 19.151 210.695 18.888 210.711 18.6328L211.328 19.3281C211.292 19.5469 211.193 19.7891 211.031 20.0547C210.87 20.3203 210.654 20.5755 210.383 20.8203C210.117 21.0599 209.799 21.2604 209.43 21.4219C209.065 21.5781 208.654 21.6562 208.195 21.6562C207.622 21.6562 207.12 21.5443 206.688 21.3203C206.26 21.0964 205.927 20.7969 205.688 20.4219C205.453 20.0417 205.336 19.6172 205.336 19.1484C205.336 18.6953 205.424 18.2969 205.602 17.9531C205.779 17.6042 206.034 17.3151 206.367 17.0859C206.701 16.8516 207.102 16.6745 207.57 16.5547C208.039 16.4349 208.562 16.375 209.141 16.375H210.82ZM219.617 19.8594V9.5H221.07V21.5H219.742L219.617 19.8594ZM213.93 17.3672V17.2031C213.93 16.5573 214.008 15.9714 214.164 15.4453C214.326 14.9141 214.552 14.4583 214.844 14.0781C215.141 13.6979 215.492 13.4062 215.898 13.2031C216.31 12.9948 216.768 12.8906 217.273 12.8906C217.805 12.8906 218.268 12.9844 218.664 13.1719C219.065 13.3542 219.404 13.6224 219.68 13.9766C219.961 14.3255 220.182 14.7474 220.344 15.2422C220.505 15.737 220.617 16.2969 220.68 16.9219V17.6406C220.622 18.2604 220.51 18.8177 220.344 19.3125C220.182 19.8073 219.961 20.2292 219.68 20.5781C219.404 20.9271 219.065 21.1953 218.664 21.3828C218.263 21.5651 217.794 21.6562 217.258 21.6562C216.763 21.6562 216.31 21.5495 215.898 21.3359C215.492 21.1224 215.141 20.8229 214.844 20.4375C214.552 20.0521 214.326 19.599 214.164 19.0781C214.008 18.5521 213.93 17.9818 213.93 17.3672ZM215.383 17.2031V17.3672C215.383 17.7891 215.424 18.1849 215.508 18.5547C215.596 18.9245 215.732 19.25 215.914 19.5312C216.096 19.8125 216.328 20.0339 216.609 20.1953C216.891 20.3516 217.227 20.4297 217.617 20.4297C218.096 20.4297 218.49 20.3281 218.797 20.125C219.109 19.9219 219.359 19.6536 219.547 19.3203C219.734 18.987 219.88 18.625 219.984 18.2344V16.3516C219.922 16.0651 219.831 15.7891 219.711 15.5234C219.596 15.2526 219.445 15.013 219.258 14.8047C219.076 14.5911 218.849 14.4219 218.578 14.2969C218.312 14.1719 217.997 14.1094 217.633 14.1094C217.237 14.1094 216.896 14.1927 216.609 14.3594C216.328 14.5208 216.096 14.7448 215.914 15.0312C215.732 15.3125 215.596 15.6406 215.508 16.0156C215.424 16.3854 215.383 16.7812 215.383 17.2031ZM228.305 20.0547V15.7031C228.305 15.3698 228.237 15.0807 228.102 14.8359C227.971 14.5859 227.773 14.3932 227.508 14.2578C227.242 14.1224 226.914 14.0547 226.523 14.0547C226.159 14.0547 225.839 14.1172 225.562 14.2422C225.292 14.3672 225.078 14.5312 224.922 14.7344C224.771 14.9375 224.695 15.1562 224.695 15.3906H223.25C223.25 15.0885 223.328 14.7891 223.484 14.4922C223.641 14.1953 223.865 13.9271 224.156 13.6875C224.453 13.4427 224.807 13.25 225.219 13.1094C225.635 12.9635 226.099 12.8906 226.609 12.8906C227.224 12.8906 227.766 12.9948 228.234 13.2031C228.708 13.4115 229.078 13.7266 229.344 14.1484C229.615 14.5651 229.75 15.0885 229.75 15.7188V19.6562C229.75 19.9375 229.773 20.237 229.82 20.5547C229.872 20.8724 229.948 21.1458 230.047 21.375V21.5H228.539C228.466 21.3333 228.409 21.112 228.367 20.8359C228.326 20.5547 228.305 20.2943 228.305 20.0547ZM228.555 16.375L228.57 17.3906H227.109C226.698 17.3906 226.331 17.4245 226.008 17.4922C225.685 17.5547 225.414 17.651 225.195 17.7812C224.977 17.9115 224.81 18.0755 224.695 18.2734C224.581 18.4661 224.523 18.6927 224.523 18.9531C224.523 19.2188 224.583 19.4609 224.703 19.6797C224.823 19.8984 225.003 20.0729 225.242 20.2031C225.487 20.3281 225.786 20.3906 226.141 20.3906C226.583 20.3906 226.974 20.2969 227.312 20.1094C227.651 19.9219 227.919 19.6927 228.117 19.4219C228.32 19.151 228.43 18.888 228.445 18.6328L229.062 19.3281C229.026 19.5469 228.927 19.7891 228.766 20.0547C228.604 20.3203 228.388 20.5755 228.117 20.8203C227.852 21.0599 227.534 21.2604 227.164 21.4219C226.799 21.5781 226.388 21.6562 225.93 21.6562C225.357 21.6562 224.854 21.5443 224.422 21.3203C223.995 21.0964 223.661 20.7969 223.422 20.4219C223.188 20.0417 223.07 19.6172 223.07 19.1484C223.07 18.6953 223.159 18.2969 223.336 17.9531C223.513 17.6042 223.768 17.3151 224.102 17.0859C224.435 16.8516 224.836 16.6745 225.305 16.5547C225.773 16.4349 226.297 16.375 226.875 16.375H228.555Z" fill="#574F4D"/>
</svg>
