<svg width="231" height="32" viewBox="0 0 231 32" fill="none" xmlns="http://www.w3.org/2000/svg">
<rect width="32" height="32" rx="16" fill="#C47F17"/>
<path d="M21.9938 12.0875L21.2313 16.2688C21.1683 16.6142 20.9863 16.9265 20.7168 17.1515C20.4472 17.3765 20.1073 17.4998 19.7563 17.5H12.5063L12.7813 19H19.5C19.7967 19 20.0867 19.088 20.3334 19.2528C20.58 19.4176 20.7723 19.6519 20.8858 19.926C20.9994 20.2001 21.0291 20.5017 20.9712 20.7926C20.9133 21.0836 20.7704 21.3509 20.5607 21.5607C20.3509 21.7704 20.0836 21.9133 19.7926 21.9712C19.5017 22.0291 19.2001 21.9994 18.926 21.8858C18.6519 21.7723 18.4176 21.58 18.2528 21.3334C18.088 21.0867 18 20.7967 18 20.5C18.0001 20.3295 18.0297 20.1604 18.0875 20H14.4125C14.4703 20.1604 14.4999 20.3295 14.5 20.5C14.5005 20.742 14.4423 20.9805 14.3306 21.1952C14.2189 21.4099 14.0569 21.5944 13.8584 21.7329C13.66 21.8714 13.4309 21.9598 13.1909 21.9906C12.9508 22.0214 12.7069 21.9937 12.4799 21.9097C12.2529 21.8258 12.0496 21.6882 11.8873 21.5087C11.725 21.3292 11.6085 21.113 11.5479 20.8787C11.4872 20.6445 11.4842 20.399 11.5389 20.1632C11.5937 19.9275 11.7047 19.7085 11.8625 19.525L10.1313 10H9C8.86739 10 8.74021 9.94732 8.64645 9.85355C8.55268 9.75979 8.5 9.63261 8.5 9.5C8.5 9.36739 8.55268 9.24021 8.64645 9.14645C8.74021 9.05268 8.86739 9 9 9H10.1313C10.3646 9.00051 10.5905 9.08265 10.7697 9.23218C10.9489 9.38171 11.0702 9.58922 11.1125 9.81875L11.4188 11.5H21.5C21.573 11.5002 21.645 11.5165 21.711 11.5478C21.7769 11.5792 21.8351 11.6247 21.8813 11.6813C21.9296 11.736 21.9649 11.801 21.9843 11.8714C22.0038 11.9418 22.0071 12.0157 21.9938 12.0875Z" fill="#FAFAFA"/>
<path d="M52.1875 17.8828H53.6875C53.6094 18.6016 53.4036 19.2448 53.0703 19.8125C52.737 20.3802 52.2656 20.8307 51.6562 21.1641C51.0469 21.4922 50.2865 21.6562 49.375 21.6562C48.7083 21.6562 48.1016 21.5312 47.5547 21.2812C47.013 21.0312 46.5469 20.6771 46.1562 20.2188C45.7656 19.7552 45.4635 19.2005 45.25 18.5547C45.0417 17.9036 44.9375 17.1797 44.9375 16.3828V15.25C44.9375 14.4531 45.0417 13.7318 45.25 13.0859C45.4635 12.4349 45.7682 11.8776 46.1641 11.4141C46.5651 10.9505 47.0469 10.5938 47.6094 10.3438C48.1719 10.0938 48.8047 9.96875 49.5078 9.96875C50.3672 9.96875 51.0938 10.1302 51.6875 10.4531C52.2812 10.776 52.7422 11.224 53.0703 11.7969C53.4036 12.3646 53.6094 13.0234 53.6875 13.7734H52.1875C52.1146 13.2422 51.9792 12.7865 51.7812 12.4062C51.5833 12.0208 51.3021 11.724 50.9375 11.5156C50.5729 11.3073 50.0964 11.2031 49.5078 11.2031C49.0026 11.2031 48.5573 11.2995 48.1719 11.4922C47.7917 11.6849 47.4714 11.9583 47.2109 12.3125C46.9557 12.6667 46.763 13.0911 46.6328 13.5859C46.5026 14.0807 46.4375 14.6302 46.4375 15.2344V16.3828C46.4375 16.9401 46.4948 17.4635 46.6094 17.9531C46.7292 18.4427 46.9089 18.8724 47.1484 19.2422C47.388 19.612 47.6927 19.9036 48.0625 20.1172C48.4323 20.3255 48.8698 20.4297 49.375 20.4297C50.0156 20.4297 50.526 20.3281 50.9062 20.125C51.2865 19.9219 51.5729 19.6302 51.7656 19.25C51.9635 18.8698 52.1042 18.4141 52.1875 17.8828ZM55.1406 17.3672V17.1875C55.1406 16.5781 55.2292 16.013 55.4062 15.4922C55.5833 14.9661 55.8385 14.5104 56.1719 14.125C56.5052 13.7344 56.9089 13.4323 57.3828 13.2188C57.8568 13 58.388 12.8906 58.9766 12.8906C59.5703 12.8906 60.1042 13 60.5781 13.2188C61.0573 13.4323 61.4635 13.7344 61.7969 14.125C62.1354 14.5104 62.3932 14.9661 62.5703 15.4922C62.7474 16.013 62.8359 16.5781 62.8359 17.1875V17.3672C62.8359 17.9766 62.7474 18.5417 62.5703 19.0625C62.3932 19.5833 62.1354 20.0391 61.7969 20.4297C61.4635 20.8151 61.0599 21.1172 60.5859 21.3359C60.1172 21.5495 59.5859 21.6562 58.9922 21.6562C58.3984 21.6562 57.8646 21.5495 57.3906 21.3359C56.9167 21.1172 56.5104 20.8151 56.1719 20.4297C55.8385 20.0391 55.5833 19.5833 55.4062 19.0625C55.2292 18.5417 55.1406 17.9766 55.1406 17.3672ZM56.5859 17.1875V17.3672C56.5859 17.7891 56.6354 18.1875 56.7344 18.5625C56.8333 18.9323 56.9818 19.2604 57.1797 19.5469C57.3828 19.8333 57.6354 20.0599 57.9375 20.2266C58.2396 20.388 58.5911 20.4688 58.9922 20.4688C59.388 20.4688 59.7344 20.388 60.0312 20.2266C60.3333 20.0599 60.5833 19.8333 60.7812 19.5469C60.9792 19.2604 61.1276 18.9323 61.2266 18.5625C61.3307 18.1875 61.3828 17.7891 61.3828 17.3672V17.1875C61.3828 16.7708 61.3307 16.3776 61.2266 16.0078C61.1276 15.6328 60.9766 15.3021 60.7734 15.0156C60.5755 14.724 60.3255 14.4948 60.0234 14.3281C59.7266 14.1615 59.3776 14.0781 58.9766 14.0781C58.5807 14.0781 58.2318 14.1615 57.9297 14.3281C57.6328 14.4948 57.3828 14.724 57.1797 15.0156C56.9818 15.3021 56.8333 15.6328 56.7344 16.0078C56.6354 16.3776 56.5859 16.7708 56.5859 17.1875ZM66.0859 14.7266V21.5H64.6328V13.0469H66.0078L66.0859 14.7266ZM65.7891 16.9531L65.1172 16.9297C65.1224 16.3516 65.1979 15.8177 65.3438 15.3281C65.4896 14.8333 65.7057 14.4036 65.9922 14.0391C66.2786 13.6745 66.6354 13.3932 67.0625 13.1953C67.4896 12.9922 67.9844 12.8906 68.5469 12.8906C68.9427 12.8906 69.3073 12.9479 69.6406 13.0625C69.974 13.1719 70.263 13.3464 70.5078 13.5859C70.7526 13.8255 70.9427 14.1328 71.0781 14.5078C71.2135 14.8828 71.2812 15.3359 71.2812 15.8672V21.5H69.8359V15.9375C69.8359 15.4948 69.7604 15.1406 69.6094 14.875C69.4635 14.6094 69.2552 14.4167 68.9844 14.2969C68.7135 14.1719 68.3958 14.1094 68.0312 14.1094C67.6042 14.1094 67.2474 14.1849 66.9609 14.3359C66.6745 14.487 66.4453 14.6953 66.2734 14.9609C66.1016 15.2266 65.9766 15.5312 65.8984 15.875C65.8255 16.2135 65.7891 16.5729 65.7891 16.9531ZM71.2656 16.1562L70.2969 16.4531C70.3021 15.9896 70.3776 15.5443 70.5234 15.1172C70.6745 14.6901 70.8906 14.3099 71.1719 13.9766C71.4583 13.6432 71.8099 13.3802 72.2266 13.1875C72.6432 12.9896 73.1198 12.8906 73.6562 12.8906C74.1094 12.8906 74.5104 12.9505 74.8594 13.0703C75.2135 13.1901 75.5104 13.375 75.75 13.625C75.9948 13.8698 76.1797 14.1849 76.3047 14.5703C76.4297 14.9557 76.4922 15.4141 76.4922 15.9453V21.5H75.0391V15.9297C75.0391 15.4557 74.9635 15.0885 74.8125 14.8281C74.6667 14.5625 74.4583 14.3776 74.1875 14.2734C73.9219 14.1641 73.6042 14.1094 73.2344 14.1094C72.9167 14.1094 72.6354 14.1641 72.3906 14.2734C72.1458 14.3828 71.9401 14.5339 71.7734 14.7266C71.6068 14.9141 71.4792 15.1302 71.3906 15.375C71.3073 15.6198 71.2656 15.8802 71.2656 16.1562ZM80.125 14.6719V24.75H78.6719V13.0469H80L80.125 14.6719ZM85.8203 17.2031V17.3672C85.8203 17.9818 85.7474 18.5521 85.6016 19.0781C85.4557 19.599 85.2422 20.0521 84.9609 20.4375C84.6849 20.8229 84.3438 21.1224 83.9375 21.3359C83.5312 21.5495 83.0651 21.6562 82.5391 21.6562C82.0026 21.6562 81.5286 21.5677 81.1172 21.3906C80.7057 21.2135 80.3568 20.9557 80.0703 20.6172C79.7839 20.2786 79.5547 19.8724 79.3828 19.3984C79.2161 18.9245 79.1016 18.3906 79.0391 17.7969V16.9219C79.1016 16.2969 79.2188 15.737 79.3906 15.2422C79.5625 14.7474 79.7891 14.3255 80.0703 13.9766C80.3568 13.6224 80.7031 13.3542 81.1094 13.1719C81.5156 12.9844 81.9844 12.8906 82.5156 12.8906C83.0469 12.8906 83.5182 12.9948 83.9297 13.2031C84.3411 13.4062 84.6875 13.6979 84.9688 14.0781C85.25 14.4583 85.4609 14.9141 85.6016 15.4453C85.7474 15.9714 85.8203 16.5573 85.8203 17.2031ZM84.3672 17.3672V17.2031C84.3672 16.7812 84.3229 16.3854 84.2344 16.0156C84.1458 15.6406 84.0078 15.3125 83.8203 15.0312C83.638 14.7448 83.4036 14.5208 83.1172 14.3594C82.8307 14.1927 82.4896 14.1094 82.0938 14.1094C81.7292 14.1094 81.4115 14.1719 81.1406 14.2969C80.875 14.4219 80.6484 14.5911 80.4609 14.8047C80.2734 15.013 80.1198 15.2526 80 15.5234C79.8854 15.7891 79.7995 16.0651 79.7422 16.3516V18.375C79.8464 18.7396 79.9922 19.0833 80.1797 19.4062C80.3672 19.724 80.6172 19.9818 80.9297 20.1797C81.2422 20.3724 81.6354 20.4688 82.1094 20.4688C82.5 20.4688 82.8359 20.388 83.1172 20.2266C83.4036 20.0599 83.638 19.8333 83.8203 19.5469C84.0078 19.2604 84.1458 18.9323 84.2344 18.5625C84.3229 18.1875 84.3672 17.7891 84.3672 17.3672ZM89.1094 14.375V21.5H87.6641V13.0469H89.0703L89.1094 14.375ZM91.75 13L91.7422 14.3438C91.6224 14.3177 91.5078 14.3021 91.3984 14.2969C91.2943 14.2865 91.1745 14.2812 91.0391 14.2812C90.7057 14.2812 90.4115 14.3333 90.1562 14.4375C89.901 14.5417 89.6849 14.6875 89.5078 14.875C89.3307 15.0625 89.1901 15.2865 89.0859 15.5469C88.987 15.8021 88.9219 16.0833 88.8906 16.3906L88.4844 16.625C88.4844 16.1146 88.5339 15.6354 88.6328 15.1875C88.737 14.7396 88.8958 14.3438 89.1094 14C89.3229 13.651 89.5938 13.3802 89.9219 13.1875C90.2552 12.9896 90.651 12.8906 91.1094 12.8906C91.2135 12.8906 91.3333 12.9036 91.4688 12.9297C91.6042 12.9505 91.6979 12.974 91.75 13ZM97.7578 20.0547V15.7031C97.7578 15.3698 97.6901 15.0807 97.5547 14.8359C97.4245 14.5859 97.2266 14.3932 96.9609 14.2578C96.6953 14.1224 96.3672 14.0547 95.9766 14.0547C95.612 14.0547 95.2917 14.1172 95.0156 14.2422C94.7448 14.3672 94.5312 14.5312 94.375 14.7344C94.224 14.9375 94.1484 15.1562 94.1484 15.3906H92.7031C92.7031 15.0885 92.7812 14.7891 92.9375 14.4922C93.0938 14.1953 93.3177 13.9271 93.6094 13.6875C93.9062 13.4427 94.2604 13.25 94.6719 13.1094C95.0885 12.9635 95.5521 12.8906 96.0625 12.8906C96.6771 12.8906 97.2188 12.9948 97.6875 13.2031C98.1615 13.4115 98.5312 13.7266 98.7969 14.1484C99.0677 14.5651 99.2031 15.0885 99.2031 15.7188V19.6562C99.2031 19.9375 99.2266 20.237 99.2734 20.5547C99.3255 20.8724 99.401 21.1458 99.5 21.375V21.5H97.9922C97.9193 21.3333 97.862 21.112 97.8203 20.8359C97.7786 20.5547 97.7578 20.2943 97.7578 20.0547ZM98.0078 16.375L98.0234 17.3906H96.5625C96.151 17.3906 95.7839 17.4245 95.4609 17.4922C95.138 17.5547 94.8672 17.651 94.6484 17.7812C94.4297 17.9115 94.263 18.0755 94.1484 18.2734C94.0339 18.4661 93.9766 18.6927 93.9766 18.9531C93.9766 19.2188 94.0365 19.4609 94.1562 19.6797C94.276 19.8984 94.4557 20.0729 94.6953 20.2031C94.9401 20.3281 95.2396 20.3906 95.5938 20.3906C96.0365 20.3906 96.4271 20.2969 96.7656 20.1094C97.1042 19.9219 97.3724 19.6927 97.5703 19.4219C97.7734 19.151 97.8828 18.888 97.8984 18.6328L98.5156 19.3281C98.4792 19.5469 98.3802 19.7891 98.2188 20.0547C98.0573 20.3203 97.8411 20.5755 97.5703 20.8203C97.3047 21.0599 96.987 21.2604 96.6172 21.4219C96.2526 21.5781 95.8411 21.6562 95.3828 21.6562C94.8099 21.6562 94.3073 21.5443 93.875 21.3203C93.4479 21.0964 93.1146 20.7969 92.875 20.4219C92.6406 20.0417 92.5234 19.6172 92.5234 19.1484C92.5234 18.6953 92.612 18.2969 92.7891 17.9531C92.9661 17.6042 93.2214 17.3151 93.5547 17.0859C93.888 16.8516 94.2891 16.6745 94.7578 16.5547C95.2266 16.4349 95.75 16.375 96.3281 16.375H98.0078ZM110.367 19.2578C110.367 19.0495 110.32 18.8568 110.227 18.6797C110.138 18.4974 109.953 18.3333 109.672 18.1875C109.396 18.0365 108.979 17.9062 108.422 17.7969C107.953 17.6979 107.529 17.5807 107.148 17.4453C106.773 17.3099 106.453 17.1458 106.188 16.9531C105.927 16.7604 105.727 16.5339 105.586 16.2734C105.445 16.013 105.375 15.7083 105.375 15.3594C105.375 15.026 105.448 14.7109 105.594 14.4141C105.745 14.1172 105.956 13.8542 106.227 13.625C106.503 13.3958 106.833 13.2161 107.219 13.0859C107.604 12.9557 108.034 12.8906 108.508 12.8906C109.185 12.8906 109.763 13.0104 110.242 13.25C110.721 13.4896 111.089 13.8099 111.344 14.2109C111.599 14.6068 111.727 15.0469 111.727 15.5312H110.281C110.281 15.2969 110.211 15.0703 110.07 14.8516C109.935 14.6276 109.734 14.4427 109.469 14.2969C109.208 14.151 108.888 14.0781 108.508 14.0781C108.107 14.0781 107.781 14.1406 107.531 14.2656C107.286 14.3854 107.107 14.5391 106.992 14.7266C106.883 14.9141 106.828 15.112 106.828 15.3203C106.828 15.4766 106.854 15.6172 106.906 15.7422C106.964 15.862 107.062 15.974 107.203 16.0781C107.344 16.1771 107.542 16.2708 107.797 16.3594C108.052 16.4479 108.378 16.5365 108.773 16.625C109.466 16.7812 110.036 16.9688 110.484 17.1875C110.932 17.4062 111.266 17.6745 111.484 17.9922C111.703 18.3099 111.812 18.6953 111.812 19.1484C111.812 19.5182 111.734 19.8568 111.578 20.1641C111.427 20.4714 111.206 20.737 110.914 20.9609C110.628 21.1797 110.284 21.3516 109.883 21.4766C109.487 21.5964 109.042 21.6562 108.547 21.6562C107.802 21.6562 107.172 21.5234 106.656 21.2578C106.141 20.9922 105.75 20.6484 105.484 20.2266C105.219 19.8047 105.086 19.3594 105.086 18.8906H106.539C106.56 19.2865 106.674 19.6016 106.883 19.8359C107.091 20.0651 107.346 20.2292 107.648 20.3281C107.951 20.4219 108.25 20.4688 108.547 20.4688C108.943 20.4688 109.273 20.4167 109.539 20.3125C109.81 20.2083 110.016 20.0651 110.156 19.8828C110.297 19.7005 110.367 19.4922 110.367 19.2578ZM115.281 13.0469V21.5H113.828V13.0469H115.281ZM113.719 10.8047C113.719 10.5703 113.789 10.3724 113.93 10.2109C114.076 10.0495 114.289 9.96875 114.57 9.96875C114.846 9.96875 115.057 10.0495 115.203 10.2109C115.354 10.3724 115.43 10.5703 115.43 10.8047C115.43 11.0286 115.354 11.2214 115.203 11.3828C115.057 11.5391 114.846 11.6172 114.57 11.6172C114.289 11.6172 114.076 11.5391 113.93 11.3828C113.789 11.2214 113.719 11.0286 113.719 10.8047ZM119.039 14.7266V21.5H117.586V13.0469H118.961L119.039 14.7266ZM118.742 16.9531L118.07 16.9297C118.076 16.3516 118.151 15.8177 118.297 15.3281C118.443 14.8333 118.659 14.4036 118.945 14.0391C119.232 13.6745 119.589 13.3932 120.016 13.1953C120.443 12.9922 120.938 12.8906 121.5 12.8906C121.896 12.8906 122.26 12.9479 122.594 13.0625C122.927 13.1719 123.216 13.3464 123.461 13.5859C123.706 13.8255 123.896 14.1328 124.031 14.5078C124.167 14.8828 124.234 15.3359 124.234 15.8672V21.5H122.789V15.9375C122.789 15.4948 122.714 15.1406 122.562 14.875C122.417 14.6094 122.208 14.4167 121.938 14.2969C121.667 14.1719 121.349 14.1094 120.984 14.1094C120.557 14.1094 120.201 14.1849 119.914 14.3359C119.628 14.487 119.398 14.6953 119.227 14.9609C119.055 15.2266 118.93 15.5312 118.852 15.875C118.779 16.2135 118.742 16.5729 118.742 16.9531ZM124.219 16.1562L123.25 16.4531C123.255 15.9896 123.331 15.5443 123.477 15.1172C123.628 14.6901 123.844 14.3099 124.125 13.9766C124.411 13.6432 124.763 13.3802 125.18 13.1875C125.596 12.9896 126.073 12.8906 126.609 12.8906C127.062 12.8906 127.464 12.9505 127.812 13.0703C128.167 13.1901 128.464 13.375 128.703 13.625C128.948 13.8698 129.133 14.1849 129.258 14.5703C129.383 14.9557 129.445 15.4141 129.445 15.9453V21.5H127.992V15.9297C127.992 15.4557 127.917 15.0885 127.766 14.8281C127.62 14.5625 127.411 14.3776 127.141 14.2734C126.875 14.1641 126.557 14.1094 126.188 14.1094C125.87 14.1094 125.589 14.1641 125.344 14.2734C125.099 14.3828 124.893 14.5339 124.727 14.7266C124.56 14.9141 124.432 15.1302 124.344 15.375C124.26 15.6198 124.219 15.8802 124.219 16.1562ZM133.078 14.6719V24.75H131.625V13.0469H132.953L133.078 14.6719ZM138.773 17.2031V17.3672C138.773 17.9818 138.701 18.5521 138.555 19.0781C138.409 19.599 138.195 20.0521 137.914 20.4375C137.638 20.8229 137.297 21.1224 136.891 21.3359C136.484 21.5495 136.018 21.6562 135.492 21.6562C134.956 21.6562 134.482 21.5677 134.07 21.3906C133.659 21.2135 133.31 20.9557 133.023 20.6172C132.737 20.2786 132.508 19.8724 132.336 19.3984C132.169 18.9245 132.055 18.3906 131.992 17.7969V16.9219C132.055 16.2969 132.172 15.737 132.344 15.2422C132.516 14.7474 132.742 14.3255 133.023 13.9766C133.31 13.6224 133.656 13.3542 134.062 13.1719C134.469 12.9844 134.938 12.8906 135.469 12.8906C136 12.8906 136.471 12.9948 136.883 13.2031C137.294 13.4062 137.641 13.6979 137.922 14.0781C138.203 14.4583 138.414 14.9141 138.555 15.4453C138.701 15.9714 138.773 16.5573 138.773 17.2031ZM137.32 17.3672V17.2031C137.32 16.7812 137.276 16.3854 137.188 16.0156C137.099 15.6406 136.961 15.3125 136.773 15.0312C136.591 14.7448 136.357 14.5208 136.07 14.3594C135.784 14.1927 135.443 14.1094 135.047 14.1094C134.682 14.1094 134.365 14.1719 134.094 14.2969C133.828 14.4219 133.602 14.5911 133.414 14.8047C133.227 15.013 133.073 15.2526 132.953 15.5234C132.839 15.7891 132.753 16.0651 132.695 16.3516V18.375C132.799 18.7396 132.945 19.0833 133.133 19.4062C133.32 19.724 133.57 19.9818 133.883 20.1797C134.195 20.3724 134.589 20.4688 135.062 20.4688C135.453 20.4688 135.789 20.388 136.07 20.2266C136.357 20.0599 136.591 19.8333 136.773 19.5469C136.961 19.2604 137.099 18.9323 137.188 18.5625C137.276 18.1875 137.32 17.7891 137.32 17.3672ZM142.188 9.5V21.5H140.734V9.5H142.188ZM148.016 21.6562C147.427 21.6562 146.893 21.5573 146.414 21.3594C145.94 21.1562 145.531 20.8724 145.188 20.5078C144.849 20.1432 144.589 19.7109 144.406 19.2109C144.224 18.7109 144.133 18.1641 144.133 17.5703V17.2422C144.133 16.5547 144.234 15.9427 144.438 15.4062C144.641 14.8646 144.917 14.4062 145.266 14.0312C145.615 13.6562 146.01 13.3724 146.453 13.1797C146.896 12.987 147.354 12.8906 147.828 12.8906C148.432 12.8906 148.953 12.9948 149.391 13.2031C149.833 13.4115 150.195 13.7031 150.477 14.0781C150.758 14.4479 150.966 14.8854 151.102 15.3906C151.237 15.8906 151.305 16.4375 151.305 17.0312V17.6797H144.992V16.5H149.859V16.3906C149.839 16.0156 149.76 15.651 149.625 15.2969C149.495 14.9427 149.286 14.651 149 14.4219C148.714 14.1927 148.323 14.0781 147.828 14.0781C147.5 14.0781 147.198 14.1484 146.922 14.2891C146.646 14.4245 146.409 14.6276 146.211 14.8984C146.013 15.1693 145.859 15.5 145.75 15.8906C145.641 16.2812 145.586 16.7318 145.586 17.2422V17.5703C145.586 17.9714 145.641 18.349 145.75 18.7031C145.865 19.0521 146.029 19.3594 146.242 19.625C146.461 19.8906 146.724 20.099 147.031 20.25C147.344 20.401 147.698 20.4766 148.094 20.4766C148.604 20.4766 149.036 20.3724 149.391 20.1641C149.745 19.9557 150.055 19.6771 150.32 19.3281L151.195 20.0234C151.013 20.2995 150.781 20.5625 150.5 20.8125C150.219 21.0625 149.872 21.2656 149.461 21.4219C149.055 21.5781 148.573 21.6562 148.016 21.6562ZM157.914 19.2578C157.914 19.0495 157.867 18.8568 157.773 18.6797C157.685 18.4974 157.5 18.3333 157.219 18.1875C156.943 18.0365 156.526 17.9062 155.969 17.7969C155.5 17.6979 155.076 17.5807 154.695 17.4453C154.32 17.3099 154 17.1458 153.734 16.9531C153.474 16.7604 153.273 16.5339 153.133 16.2734C152.992 16.013 152.922 15.7083 152.922 15.3594C152.922 15.026 152.995 14.7109 153.141 14.4141C153.292 14.1172 153.503 13.8542 153.773 13.625C154.049 13.3958 154.38 13.2161 154.766 13.0859C155.151 12.9557 155.581 12.8906 156.055 12.8906C156.732 12.8906 157.31 13.0104 157.789 13.25C158.268 13.4896 158.635 13.8099 158.891 14.2109C159.146 14.6068 159.273 15.0469 159.273 15.5312H157.828C157.828 15.2969 157.758 15.0703 157.617 14.8516C157.482 14.6276 157.281 14.4427 157.016 14.2969C156.755 14.151 156.435 14.0781 156.055 14.0781C155.654 14.0781 155.328 14.1406 155.078 14.2656C154.833 14.3854 154.654 14.5391 154.539 14.7266C154.43 14.9141 154.375 15.112 154.375 15.3203C154.375 15.4766 154.401 15.6172 154.453 15.7422C154.51 15.862 154.609 15.974 154.75 16.0781C154.891 16.1771 155.089 16.2708 155.344 16.3594C155.599 16.4479 155.924 16.5365 156.32 16.625C157.013 16.7812 157.583 16.9688 158.031 17.1875C158.479 17.4062 158.812 17.6745 159.031 17.9922C159.25 18.3099 159.359 18.6953 159.359 19.1484C159.359 19.5182 159.281 19.8568 159.125 20.1641C158.974 20.4714 158.753 20.737 158.461 20.9609C158.174 21.1797 157.831 21.3516 157.43 21.4766C157.034 21.5964 156.589 21.6562 156.094 21.6562C155.349 21.6562 154.719 21.5234 154.203 21.2578C153.688 20.9922 153.297 20.6484 153.031 20.2266C152.766 19.8047 152.633 19.3594 152.633 18.8906H154.086C154.107 19.2865 154.221 19.6016 154.43 19.8359C154.638 20.0651 154.893 20.2292 155.195 20.3281C155.497 20.4219 155.797 20.4688 156.094 20.4688C156.49 20.4688 156.82 20.4167 157.086 20.3125C157.357 20.2083 157.562 20.0651 157.703 19.8828C157.844 19.7005 157.914 19.4922 157.914 19.2578ZM168.734 21.6562C168.146 21.6562 167.612 21.5573 167.133 21.3594C166.659 21.1562 166.25 20.8724 165.906 20.5078C165.568 20.1432 165.307 19.7109 165.125 19.2109C164.943 18.7109 164.852 18.1641 164.852 17.5703V17.2422C164.852 16.5547 164.953 15.9427 165.156 15.4062C165.359 14.8646 165.635 14.4062 165.984 14.0312C166.333 13.6562 166.729 13.3724 167.172 13.1797C167.615 12.987 168.073 12.8906 168.547 12.8906C169.151 12.8906 169.672 12.9948 170.109 13.2031C170.552 13.4115 170.914 13.7031 171.195 14.0781C171.477 14.4479 171.685 14.8854 171.82 15.3906C171.956 15.8906 172.023 16.4375 172.023 17.0312V17.6797H165.711V16.5H170.578V16.3906C170.557 16.0156 170.479 15.651 170.344 15.2969C170.214 14.9427 170.005 14.651 169.719 14.4219C169.432 14.1927 169.042 14.0781 168.547 14.0781C168.219 14.0781 167.917 14.1484 167.641 14.2891C167.365 14.4245 167.128 14.6276 166.93 14.8984C166.732 15.1693 166.578 15.5 166.469 15.8906C166.359 16.2812 166.305 16.7318 166.305 17.2422V17.5703C166.305 17.9714 166.359 18.349 166.469 18.7031C166.583 19.0521 166.747 19.3594 166.961 19.625C167.18 19.8906 167.443 20.099 167.75 20.25C168.062 20.401 168.417 20.4766 168.812 20.4766C169.323 20.4766 169.755 20.3724 170.109 20.1641C170.464 19.9557 170.773 19.6771 171.039 19.3281L171.914 20.0234C171.732 20.2995 171.5 20.5625 171.219 20.8125C170.938 21.0625 170.591 21.2656 170.18 21.4219C169.773 21.5781 169.292 21.6562 168.734 21.6562ZM182.602 19.2578C182.602 19.0495 182.555 18.8568 182.461 18.6797C182.372 18.4974 182.188 18.3333 181.906 18.1875C181.63 18.0365 181.214 17.9062 180.656 17.7969C180.188 17.6979 179.763 17.5807 179.383 17.4453C179.008 17.3099 178.688 17.1458 178.422 16.9531C178.161 16.7604 177.961 16.5339 177.82 16.2734C177.68 16.013 177.609 15.7083 177.609 15.3594C177.609 15.026 177.682 14.7109 177.828 14.4141C177.979 14.1172 178.19 13.8542 178.461 13.625C178.737 13.3958 179.068 13.2161 179.453 13.0859C179.839 12.9557 180.268 12.8906 180.742 12.8906C181.419 12.8906 181.997 13.0104 182.477 13.25C182.956 13.4896 183.323 13.8099 183.578 14.2109C183.833 14.6068 183.961 15.0469 183.961 15.5312H182.516C182.516 15.2969 182.445 15.0703 182.305 14.8516C182.169 14.6276 181.969 14.4427 181.703 14.2969C181.443 14.151 181.122 14.0781 180.742 14.0781C180.341 14.0781 180.016 14.1406 179.766 14.2656C179.521 14.3854 179.341 14.5391 179.227 14.7266C179.117 14.9141 179.062 15.112 179.062 15.3203C179.062 15.4766 179.089 15.6172 179.141 15.7422C179.198 15.862 179.297 15.974 179.438 16.0781C179.578 16.1771 179.776 16.2708 180.031 16.3594C180.286 16.4479 180.612 16.5365 181.008 16.625C181.701 16.7812 182.271 16.9688 182.719 17.1875C183.167 17.4062 183.5 17.6745 183.719 17.9922C183.938 18.3099 184.047 18.6953 184.047 19.1484C184.047 19.5182 183.969 19.8568 183.812 20.1641C183.661 20.4714 183.44 20.737 183.148 20.9609C182.862 21.1797 182.518 21.3516 182.117 21.4766C181.721 21.5964 181.276 21.6562 180.781 21.6562C180.036 21.6562 179.406 21.5234 178.891 21.2578C178.375 20.9922 177.984 20.6484 177.719 20.2266C177.453 19.8047 177.32 19.3594 177.32 18.8906H178.773C178.794 19.2865 178.909 19.6016 179.117 19.8359C179.326 20.0651 179.581 20.2292 179.883 20.3281C180.185 20.4219 180.484 20.4688 180.781 20.4688C181.177 20.4688 181.508 20.4167 181.773 20.3125C182.044 20.2083 182.25 20.0651 182.391 19.8828C182.531 19.7005 182.602 19.4922 182.602 19.2578ZM189.453 21.6562C188.865 21.6562 188.331 21.5573 187.852 21.3594C187.378 21.1562 186.969 20.8724 186.625 20.5078C186.286 20.1432 186.026 19.7109 185.844 19.2109C185.661 18.7109 185.57 18.1641 185.57 17.5703V17.2422C185.57 16.5547 185.672 15.9427 185.875 15.4062C186.078 14.8646 186.354 14.4062 186.703 14.0312C187.052 13.6562 187.448 13.3724 187.891 13.1797C188.333 12.987 188.792 12.8906 189.266 12.8906C189.87 12.8906 190.391 12.9948 190.828 13.2031C191.271 13.4115 191.633 13.7031 191.914 14.0781C192.195 14.4479 192.404 14.8854 192.539 15.3906C192.674 15.8906 192.742 16.4375 192.742 17.0312V17.6797H186.43V16.5H191.297V16.3906C191.276 16.0156 191.198 15.651 191.062 15.2969C190.932 14.9427 190.724 14.651 190.438 14.4219C190.151 14.1927 189.76 14.0781 189.266 14.0781C188.938 14.0781 188.635 14.1484 188.359 14.2891C188.083 14.4245 187.846 14.6276 187.648 14.8984C187.451 15.1693 187.297 15.5 187.188 15.8906C187.078 16.2812 187.023 16.7318 187.023 17.2422V17.5703C187.023 17.9714 187.078 18.349 187.188 18.7031C187.302 19.0521 187.466 19.3594 187.68 19.625C187.898 19.8906 188.161 20.099 188.469 20.25C188.781 20.401 189.135 20.4766 189.531 20.4766C190.042 20.4766 190.474 20.3724 190.828 20.1641C191.182 19.9557 191.492 19.6771 191.758 19.3281L192.633 20.0234C192.451 20.2995 192.219 20.5625 191.938 20.8125C191.656 21.0625 191.31 21.2656 190.898 21.4219C190.492 21.5781 190.01 21.6562 189.453 21.6562ZM199.906 13.0469H201.219V21.3203C201.219 22.0651 201.068 22.7005 200.766 23.2266C200.464 23.7526 200.042 24.151 199.5 24.4219C198.964 24.6979 198.344 24.8359 197.641 24.8359C197.349 24.8359 197.005 24.7891 196.609 24.6953C196.219 24.6068 195.833 24.4531 195.453 24.2344C195.078 24.0208 194.763 23.7318 194.508 23.3672L195.266 22.5078C195.62 22.9349 195.99 23.2318 196.375 23.3984C196.766 23.5651 197.151 23.6484 197.531 23.6484C197.99 23.6484 198.385 23.5625 198.719 23.3906C199.052 23.2188 199.31 22.9635 199.492 22.625C199.68 22.2917 199.773 21.8802 199.773 21.3906V14.9062L199.906 13.0469ZM194.086 17.3672V17.2031C194.086 16.5573 194.161 15.9714 194.312 15.4453C194.469 14.9141 194.69 14.4583 194.977 14.0781C195.268 13.6979 195.62 13.4062 196.031 13.2031C196.443 12.9948 196.906 12.8906 197.422 12.8906C197.953 12.8906 198.417 12.9844 198.812 13.1719C199.214 13.3542 199.552 13.6224 199.828 13.9766C200.109 14.3255 200.331 14.7474 200.492 15.2422C200.654 15.737 200.766 16.2969 200.828 16.9219V17.6406C200.771 18.2604 200.659 18.8177 200.492 19.3125C200.331 19.8073 200.109 20.2292 199.828 20.5781C199.552 20.9271 199.214 21.1953 198.812 21.3828C198.411 21.5651 197.943 21.6562 197.406 21.6562C196.901 21.6562 196.443 21.5495 196.031 21.3359C195.625 21.1224 195.276 20.8229 194.984 20.4375C194.693 20.0521 194.469 19.599 194.312 19.0781C194.161 18.5521 194.086 17.9818 194.086 17.3672ZM195.531 17.2031V17.3672C195.531 17.7891 195.573 18.1849 195.656 18.5547C195.745 18.9245 195.878 19.25 196.055 19.5312C196.237 19.8125 196.469 20.0339 196.75 20.1953C197.031 20.3516 197.367 20.4297 197.758 20.4297C198.237 20.4297 198.633 20.3281 198.945 20.125C199.258 19.9219 199.505 19.6536 199.688 19.3203C199.875 18.987 200.021 18.625 200.125 18.2344V16.3516C200.068 16.0651 199.979 15.7891 199.859 15.5234C199.745 15.2526 199.594 15.013 199.406 14.8047C199.224 14.5911 198.997 14.4219 198.727 14.2969C198.456 14.1719 198.138 14.1094 197.773 14.1094C197.378 14.1094 197.036 14.1927 196.75 14.3594C196.469 14.5208 196.237 14.7448 196.055 15.0312C195.878 15.3125 195.745 15.6406 195.656 16.0156C195.573 16.3854 195.531 16.7812 195.531 17.2031ZM208.586 19.5469V13.0469H210.039V21.5H208.656L208.586 19.5469ZM208.859 17.7656L209.461 17.75C209.461 18.3125 209.401 18.8333 209.281 19.3125C209.167 19.7865 208.979 20.1979 208.719 20.5469C208.458 20.8958 208.117 21.1693 207.695 21.3672C207.273 21.5599 206.76 21.6562 206.156 21.6562C205.745 21.6562 205.367 21.5964 205.023 21.4766C204.685 21.3568 204.393 21.1719 204.148 20.9219C203.904 20.6719 203.714 20.3464 203.578 19.9453C203.448 19.5443 203.383 19.0625 203.383 18.5V13.0469H204.828V18.5156C204.828 18.8958 204.87 19.2109 204.953 19.4609C205.042 19.7057 205.159 19.901 205.305 20.0469C205.456 20.1875 205.622 20.2865 205.805 20.3438C205.992 20.401 206.185 20.4297 206.383 20.4297C206.997 20.4297 207.484 20.3125 207.844 20.0781C208.203 19.8385 208.461 19.5182 208.617 19.1172C208.779 18.7109 208.859 18.2604 208.859 17.7656ZM213.688 14.375V21.5H212.242V13.0469H213.648L213.688 14.375ZM216.328 13L216.32 14.3438C216.201 14.3177 216.086 14.3021 215.977 14.2969C215.872 14.2865 215.753 14.2812 215.617 14.2812C215.284 14.2812 214.99 14.3333 214.734 14.4375C214.479 14.5417 214.263 14.6875 214.086 14.875C213.909 15.0625 213.768 15.2865 213.664 15.5469C213.565 15.8021 213.5 16.0833 213.469 16.3906L213.062 16.625C213.062 16.1146 213.112 15.6354 213.211 15.1875C213.315 14.7396 213.474 14.3438 213.688 14C213.901 13.651 214.172 13.3802 214.5 13.1875C214.833 12.9896 215.229 12.8906 215.688 12.8906C215.792 12.8906 215.911 12.9036 216.047 12.9297C216.182 12.9505 216.276 12.974 216.328 13ZM222.336 20.0547V15.7031C222.336 15.3698 222.268 15.0807 222.133 14.8359C222.003 14.5859 221.805 14.3932 221.539 14.2578C221.273 14.1224 220.945 14.0547 220.555 14.0547C220.19 14.0547 219.87 14.1172 219.594 14.2422C219.323 14.3672 219.109 14.5312 218.953 14.7344C218.802 14.9375 218.727 15.1562 218.727 15.3906H217.281C217.281 15.0885 217.359 14.7891 217.516 14.4922C217.672 14.1953 217.896 13.9271 218.188 13.6875C218.484 13.4427 218.839 13.25 219.25 13.1094C219.667 12.9635 220.13 12.8906 220.641 12.8906C221.255 12.8906 221.797 12.9948 222.266 13.2031C222.74 13.4115 223.109 13.7266 223.375 14.1484C223.646 14.5651 223.781 15.0885 223.781 15.7188V19.6562C223.781 19.9375 223.805 20.237 223.852 20.5547C223.904 20.8724 223.979 21.1458 224.078 21.375V21.5H222.57C222.497 21.3333 222.44 21.112 222.398 20.8359C222.357 20.5547 222.336 20.2943 222.336 20.0547ZM222.586 16.375L222.602 17.3906H221.141C220.729 17.3906 220.362 17.4245 220.039 17.4922C219.716 17.5547 219.445 17.651 219.227 17.7812C219.008 17.9115 218.841 18.0755 218.727 18.2734C218.612 18.4661 218.555 18.6927 218.555 18.9531C218.555 19.2188 218.615 19.4609 218.734 19.6797C218.854 19.8984 219.034 20.0729 219.273 20.2031C219.518 20.3281 219.818 20.3906 220.172 20.3906C220.615 20.3906 221.005 20.2969 221.344 20.1094C221.682 19.9219 221.951 19.6927 222.148 19.4219C222.352 19.151 222.461 18.888 222.477 18.6328L223.094 19.3281C223.057 19.5469 222.958 19.7891 222.797 20.0547C222.635 20.3203 222.419 20.5755 222.148 20.8203C221.883 21.0599 221.565 21.2604 221.195 21.4219C220.831 21.5781 220.419 21.6562 219.961 21.6562C219.388 21.6562 218.885 21.5443 218.453 21.3203C218.026 21.0964 217.693 20.7969 217.453 20.4219C217.219 20.0417 217.102 19.6172 217.102 19.1484C217.102 18.6953 217.19 18.2969 217.367 17.9531C217.544 17.6042 217.799 17.3151 218.133 17.0859C218.466 16.8516 218.867 16.6745 219.336 16.5547C219.805 16.4349 220.328 16.375 220.906 16.375H222.586Z" fill="#574F4D"/>
</svg>
